# xmcd
# 
# Track frame offsets:
#     150
#     17915
#     32150
#     45505
#     56295
#     71267
#     80505
#     96832
#     108290
#     124725
#     139885
#     153967
#     167452
#     188007
#     200737
#     219920
#     238242
#     253767
#     266020
#     280770
#     292777
#     307937
#     322420
# 
# Disc length: 4488
# 
# Revision: 7
# Processed by: cddbd v1.5.2PL0 Copyright (c) Steve Scherf et al.
# Submitted via: fre:ac v1.0.17
# 
DISCID=45118617
DTITLE=Various Artist - Stereoplay Special CD 72 Country Volume 2
DYEAR=1993
DGENRE=Country
TTITLE0=Alabama - Hats Off
TTITLE1=Lacy J. Dalton - 16th Avenue
TTITLE2=Hank Snow - Six String Tennessee Flat Top
TTITLE3=George Jones and Ricky Van Shelton - It Hurts As Much In Texas
TTITLE4=George Strait - All My Ex's Live In Texas
TTITLE5=Connie Smith - A Far Cry From You
TTITLE6=Carl Jackson - Dixie Train
TTITLE7=Earl Scruggs and Tom T. Hall - The Engineers Don't Wave From The The Trains Anymore
TTITLE8=Ricky Van Shelton - Sometimes I Cry In My Sleep
TTITLE9=Waylon Jennings - Good Time Charlie's Got The Blues
TTITLE10=Willie Nelson - My Heroes Have Always Been Cowboys
TTITLE11=Crystal Gayle - Hands
TTITLE12=James Talley - Deep Country Blues
TTITLE13=Jerry Reed - East Bound And Down
TTITLE14=Merle Haggard - Are The Good Times Really Over
TTITLE15=The Bellamy Brothers - Old Hippie
TTITLE16=Dolly Parton and Ricky Van Shelton - Rockin' Years
TTITLE17=David Allan Coe - Wild Irish Rose
TTITLE18=Gene Watson - Old Loves Never Die
TTITLE19=Restless Heart - You Can Depend On Me
TTITLE20=Mary-Chapin Carpenter - Down At The Twist And Shout
TTITLE21=Don Williams - If Hollywood Don't Need You
TTITLE22=Johnny Cash - Sing A Travelling Song
EXTD=
EXTT0=
EXTT1=
EXTT2=
EXTT3=
EXTT4=
EXTT5=
EXTT6=
EXTT7=
EXTT8=
EXTT9=
EXTT10=
EXTT11=
EXTT12=
EXTT13=
EXTT14=
EXTT15=
EXTT16=
EXTT17=
EXTT18=
EXTT19=
EXTT20=
EXTT21=
EXTT22=
PLAYORDER=
